<svg class="main-svg" xmlns="http://www.w3.org/2000/svg" xmlns:xlink="http://www.w3.org/1999/xlink" width="700" height="500" style="" viewBox="0 0 700 500"><rect x="0" y="0" width="700" height="500" style="fill: rgb(255, 255, 255); fill-opacity: 1;"/><defs id="defs-e7aa8a"><g class="clips"/><g class="gradients"/><g class="patterns"/></defs><g class="bglayer"/><g class="layer-below"><g class="imagelayer"/><g class="shapelayer"/></g><g class="cartesianlayer"/><g class="polarlayer"/><g class="smithlayer"/><g class="ternarylayer"/><g class="geolayer"/><g class="funnelarealayer"/><g class="pielayer"/><g class="iciclelayer"/><g class="treemaplayer"/><g class="sunburstlayer"/><g class="glimages"/><g class="sankey" transform="translate(80,100)matrix(1 0 0 1 0 0)" style="box-sizing: content-box; position: absolute; left: 0px; shape-rendering: geometricprecision; pointer-events: none;"><g class="sankey-links" style="fill: none;"><path class="sankey-link" d="M20,47.94648273018268C62,47.94648273018268 62,38.91893754054826 104,38.91893754054826L104,227.3804760020867C62,227.3804760020867 62,236.40802119172113 20,236.40802119172113Z" style="stroke: rgb(68, 68, 68); stroke-opacity: 1; fill: rgb(166, 206, 227); fill-opacity: 0.5; stroke-width: 0; opacity: 1;"/><path class="sankey-link" d="M20,251.4080211917211C62,251.4080211917211 62,227.3804760020867 104,227.3804760020867L104,283.91893754054826C62,283.91893754054826 62,307.94648273018265 20,307.94648273018265Z" style="stroke: rgb(68, 68, 68); stroke-opacity: 1; fill: rgb(31, 120, 180); fill-opacity: 0.5; stroke-width: 0; opacity: 1;"/><path class="sankey-link" d="M124,38.918937540548264C322,38.918937540548264 322,2.4868995751603507e-13 520,2.4868995751603507e-13L520,113.07692307692332C322,113.07692307692332 322,151.99586061747135 124,151.99586061747135Z" style="stroke: rgb(68, 68, 68); stroke-opacity: 1; fill: rgb(178, 223, 138); fill-opacity: 0.5; stroke-width: 0; opacity: 1;"/><path class="sankey-link" d="M124,282.0343221559329C322,282.0343221559329 322,280.57692307692304 520,280.57692307692304L520,282.4615384615384C322,282.4615384615384 322,283.91893754054826 124,283.91893754054826Z" style="stroke: rgb(68, 68, 68); stroke-opacity: 1; fill: rgb(51, 160, 44); fill-opacity: 0.5; stroke-width: 0; opacity: 1;"/><path class="sankey-link" d="M124,274.49586061747135C322,274.49586061747135 322,246.73076923076923 520,246.73076923076923L520,254.26923076923077C322,254.26923076923077 322,282.0343221559329 124,282.0343221559329Z" style="stroke: rgb(68, 68, 68); stroke-opacity: 1; fill: rgb(251, 154, 153); fill-opacity: 0.5; stroke-width: 0; opacity: 1;"/><path class="sankey-link" d="M124,208.5343221559329C322,208.5343221559329 322,148.8076923076925 520,148.8076923076925L520,214.76923076923094C322,214.76923076923094 322,274.49586061747135 124,274.49586061747135Z" style="stroke: rgb(68, 68, 68); stroke-opacity: 1; fill: rgb(227, 26, 28); fill-opacity: 0.5; stroke-width: 0; opacity: 1;"/><path class="sankey-link" d="M124,151.99586061747135C166,151.99586061747135 166,133.79536225935948 208,133.79536225935948L208,190.33382379782103C166,190.33382379782103 166,208.5343221559329 124,208.5343221559329Z" style="stroke: rgb(68, 68, 68); stroke-opacity: 1; fill: rgb(253, 191, 111); fill-opacity: 0.5; stroke-width: 0; opacity: 1;"/><path class="sankey-link" d="M228,167.71843918243638C270,167.71843918243638 270,178.96890375368338 312,178.96890375368338L312,194.04582683060647C270,194.04582683060647 270,182.79536225935948 228,182.79536225935948Z" style="stroke: rgb(68, 68, 68); stroke-opacity: 1; fill: rgb(255, 127, 0); fill-opacity: 0.5; stroke-width: 0; opacity: 1;"/><path class="sankey-link" d="M228,133.79536225935948C374,133.79536225935948 374,113.07692307692332 520,113.07692307692332L520,133.80769230769255C374,133.80769230769255 374,154.5261314901287 228,154.5261314901287Z" style="stroke: rgb(68, 68, 68); stroke-opacity: 1; fill: rgb(202, 178, 214); fill-opacity: 0.5; stroke-width: 0; opacity: 1;"/><path class="sankey-link" d="M228,188.4492084132056C374,188.4492084132056 374,282.4615384615384 520,282.4615384615384L520,284.34615384615375C374,284.34615384615375 374,190.33382379782097 228,190.33382379782097Z" style="stroke: rgb(68, 68, 68); stroke-opacity: 1; fill: rgb(106, 61, 154); fill-opacity: 0.5; stroke-width: 0; opacity: 1;"/><path class="sankey-link" d="M228,182.79536225935945C374,182.79536225935945 374,254.2692307692308 520,254.2692307692308L520,259.92307692307696C374,259.92307692307696 374,188.44920841320558 228,188.44920841320558Z" style="stroke: rgb(68, 68, 68); stroke-opacity: 1; fill: rgb(255, 255, 153); fill-opacity: 0.5; stroke-width: 0; opacity: 1;"/><path class="sankey-link" d="M228,154.5261314901287C374,154.5261314901287 374,214.76923076923094 520,214.76923076923094L520,227.96153846153862C374,227.96153846153862 374,167.71843918243638 228,167.71843918243638Z" style="stroke: rgb(68, 68, 68); stroke-opacity: 1; fill: rgb(177, 89, 40); fill-opacity: 0.5; stroke-width: 0; opacity: 1;"/><path class="sankey-link" d="M332,192.16121144599109C426,192.16121144599109 426,299.3461538461538 520,299.3461538461538L520,301.23076923076917C426,301.23076923076917 426,194.04582683060644 332,194.04582683060644Z" style="stroke: rgb(68, 68, 68); stroke-opacity: 1; fill: rgb(0, 0, 0); fill-opacity: 0.5; stroke-width: 0; opacity: 1;"/><path class="sankey-link" d="M332,188.3919806767603C426,188.3919806767603 426,259.9230769230769 520,259.9230769230769L520,263.6923076923076C426,263.6923076923076 426,192.16121144599109 332,192.16121144599109Z" style="stroke: rgb(68, 68, 68); stroke-opacity: 1; fill: rgb(177, 179, 0); fill-opacity: 0.5; stroke-width: 0; opacity: 1;"/><path class="sankey-link" d="M332,178.96890375368338C374,178.96890375368338 374,201.00299861643765 416,201.00299861643765L416,210.42607553951456C374,210.42607553951456 374,188.39198067676028 332,188.39198067676028Z" style="stroke: rgb(68, 68, 68); stroke-opacity: 1; fill: rgb(177, 89, 40); fill-opacity: 0.5; stroke-width: 0; opacity: 1;"/><path class="sankey-link" d="M436,206.6568447702838C478,206.6568447702838 478,316.2307692307692 520,316.2307692307692L520,319.99999999999994C478,319.99999999999994 478,210.42607553951458 436,210.42607553951458Z" style="stroke: rgb(68, 68, 68); stroke-opacity: 1; fill: rgb(106, 61, 154); fill-opacity: 0.5; stroke-width: 0; opacity: 1;"/><path class="sankey-link" d="M436,204.77222938566842C478,204.77222938566842 478,263.6923076923077 520,263.6923076923077L520,265.57692307692304C478,265.57692307692304 478,206.65684477028378 436,206.65684477028378Z" style="stroke: rgb(68, 68, 68); stroke-opacity: 1; fill: rgb(255, 255, 153); fill-opacity: 0.5; stroke-width: 0; opacity: 1;"/><path class="sankey-link" d="M436,201.00299861643765C478,201.00299861643765 478,227.96153846153862 520,227.96153846153862L520,231.7307692307694C478,231.7307692307694 478,204.77222938566842 436,204.77222938566842Z" style="stroke: rgb(68, 68, 68); stroke-opacity: 1; fill: rgb(177, 179, 0); fill-opacity: 0.5; stroke-width: 0; opacity: 1;"/></g><g class="sankey-node-set" style="cursor: move;"><g class="sankey-node" transform="translate(520.000,148.808)" style="opacity: 1;"><rect class="node-rect" width="20" height="82.92307692307674" style="stroke-width: 0.5; stroke: rgb(0, 0, 0); stroke-opacity: 1; fill: rgb(99, 110, 250); fill-opacity: 0.8;"/><text class="node-label" data-notex="1" x="0" y="0" text-anchor="end" transform="translate(-3.25,44.96153846153837)" style="cursor: default; font-family: 'Open Sans', verdana, arial, sans-serif; font-size: 10px; fill: rgb(42, 63, 95); fill-opacity: 1; white-space: pre; text-shadow: white 1px 1px 1px, white -1px -1px 1px, white 1px -1px 1px, white -1px 1px 1px;">Not Selected</text></g><g class="sankey-node" transform="translate(416.000,201.003)" style="opacity: 1;"><rect class="node-rect" width="20" height="9.423076923076906" style="stroke-width: 0.5; stroke: rgb(0, 0, 0); stroke-opacity: 1; fill: rgb(239, 85, 59); fill-opacity: 0.8;"/><text class="node-label" data-notex="1" x="0" y="0" text-anchor="start" transform="translate(23.25,8.211538461538453)" style="cursor: default; font-family: 'Open Sans', verdana, arial, sans-serif; font-size: 10px; fill: rgb(42, 63, 95); fill-opacity: 1; white-space: pre; text-shadow: white 1px 1px 1px, white -1px -1px 1px, white 1px -1px 1px, white -1px 1px 1px;">Second Interview</text></g><g class="sankey-node" transform="translate(0.000,47.946)" style="opacity: 1;"><rect class="node-rect" width="20" height="188.46153846153845" style="stroke-width: 0.5; stroke: rgb(0, 0, 0); stroke-opacity: 1; fill: rgb(0, 204, 150); fill-opacity: 0.8;"/><text class="node-label" data-notex="1" x="0" y="0" text-anchor="start" transform="translate(23.25,97.73076923076923)" style="cursor: default; font-family: 'Open Sans', verdana, arial, sans-serif; font-size: 10px; fill: rgb(42, 63, 95); fill-opacity: 1; white-space: pre; text-shadow: white 1px 1px 1px, white -1px -1px 1px, white 1px -1px 1px, white -1px 1px 1px;">I applied to them</text></g><g class="sankey-node" transform="translate(312.000,178.969)" style="opacity: 1;"><rect class="node-rect" width="20" height="15.076923076922924" style="stroke-width: 0.5; stroke: rgb(0, 0, 0); stroke-opacity: 1; fill: rgb(171, 99, 250); fill-opacity: 0.8;"/><text class="node-label" data-notex="1" x="0" y="0" text-anchor="start" transform="translate(23.25,11.038461538461462)" style="cursor: default; font-family: 'Open Sans', verdana, arial, sans-serif; font-size: 10px; fill: rgb(42, 63, 95); fill-opacity: 1; white-space: pre; text-shadow: white 1px 1px 1px, white -1px -1px 1px, white 1px -1px 1px, white -1px 1px 1px;">First Interview</text></g><g class="sankey-node" transform="translate(104.000,38.919)" style="opacity: 1;"><rect class="node-rect" width="20" height="245.0000000000001" style="stroke-width: 0.5; stroke: rgb(0, 0, 0); stroke-opacity: 1; fill: rgb(255, 161, 90); fill-opacity: 0.8;"/><text class="node-label" data-notex="1" x="0" y="0" text-anchor="start" transform="translate(23.25,126.00000000000006)" style="cursor: default; font-family: 'Open Sans', verdana, arial, sans-serif; font-size: 10px; fill: rgb(42, 63, 95); fill-opacity: 1; white-space: pre; text-shadow: white 1px 1px 1px, white -1px -1px 1px, white 1px -1px 1px, white -1px 1px 1px;">Application</text></g><g class="sankey-node" transform="translate(520.000,316.231)" style="opacity: 1;"><rect class="node-rect" width="20" height="3.7692307692307736" style="stroke-width: 0.5; stroke: rgb(0, 0, 0); stroke-opacity: 1; fill: rgb(25, 211, 243); fill-opacity: 0.8;"/><text class="node-label" data-notex="1" x="0" y="0" text-anchor="end" transform="translate(-3.25,5.384615384615387)" style="cursor: default; font-family: 'Open Sans', verdana, arial, sans-serif; font-size: 10px; fill: rgb(42, 63, 95); fill-opacity: 1; white-space: pre; text-shadow: white 1px 1px 1px, white -1px -1px 1px, white 1px -1px 1px, white -1px 1px 1px;">Offer Extended</text></g><g class="sankey-node" transform="translate(520.000,299.346)" style="opacity: 1;"><rect class="node-rect" width="20" height="1.8846153846154152" style="stroke-width: 0.5; stroke: rgb(0, 0, 0); stroke-opacity: 1; fill: rgb(255, 102, 146); fill-opacity: 0.8;"/><text class="node-label" data-notex="1" x="0" y="0" text-anchor="end" transform="translate(-3.25,4.442307692307708)" style="cursor: default; font-family: 'Open Sans', verdana, arial, sans-serif; font-size: 10px; fill: rgb(42, 63, 95); fill-opacity: 1; white-space: pre; text-shadow: white 1px 1px 1px, white -1px -1px 1px, white 1px -1px 1px, white -1px 1px 1px;">Withdrew</text></g><g class="sankey-node" transform="translate(520.000,280.577)" style="opacity: 1;"><rect class="node-rect" width="20" height="3.7692307692307736" style="stroke-width: 0.5; stroke: rgb(0, 0, 0); stroke-opacity: 1; fill: rgb(182, 232, 128); fill-opacity: 0.8;"/><text class="node-label" data-notex="1" x="0" y="0" text-anchor="end" transform="translate(-3.25,5.384615384615387)" style="cursor: default; font-family: 'Open Sans', verdana, arial, sans-serif; font-size: 10px; fill: rgb(42, 63, 95); fill-opacity: 1; white-space: pre; text-shadow: white 1px 1px 1px, white -1px -1px 1px, white 1px -1px 1px, white -1px 1px 1px;">Moved to Different Team</text></g><g class="sankey-node" transform="translate(208.000,133.795)" style="opacity: 1;"><rect class="node-rect" width="20" height="56.53846153846155" style="stroke-width: 0.5; stroke: rgb(0, 0, 0); stroke-opacity: 1; fill: rgb(255, 151, 255); fill-opacity: 0.8;"/><text class="node-label" data-notex="1" x="0" y="0" text-anchor="start" transform="translate(23.25,31.769230769230774)" style="cursor: default; font-family: 'Open Sans', verdana, arial, sans-serif; font-size: 10px; fill: rgb(42, 63, 95); fill-opacity: 1; white-space: pre; text-shadow: white 1px 1px 1px, white -1px -1px 1px, white 1px -1px 1px, white -1px 1px 1px;">Screening</text></g><g class="sankey-node" transform="translate(520.000,246.731)" style="opacity: 1;"><rect class="node-rect" width="20" height="18.84615384615381" style="stroke-width: 0.5; stroke: rgb(0, 0, 0); stroke-opacity: 1; fill: rgb(254, 203, 82); fill-opacity: 0.8;"/><text class="node-label" data-notex="1" x="0" y="0" text-anchor="end" transform="translate(-3.25,12.923076923076906)" style="cursor: default; font-family: 'Open Sans', verdana, arial, sans-serif; font-size: 10px; fill: rgb(42, 63, 95); fill-opacity: 1; white-space: pre; text-shadow: white 1px 1px 1px, white -1px -1px 1px, white 1px -1px 1px, white -1px 1px 1px;">Position Closed</text></g><g class="sankey-node" transform="translate(520.000,0.000)" style="opacity: 1;"><rect class="node-rect" width="20" height="133.80769230769224" style="stroke-width: 0.5; stroke: rgb(0, 0, 0); stroke-opacity: 1; fill: rgb(99, 110, 250); fill-opacity: 0.8;"/><text class="node-label" data-notex="1" x="0" y="0" text-anchor="end" transform="translate(-3.25,70.40384615384612)" style="cursor: default; font-family: 'Open Sans', verdana, arial, sans-serif; font-size: 10px; fill: rgb(42, 63, 95); fill-opacity: 1; white-space: pre; text-shadow: white 1px 1px 1px, white -1px -1px 1px, white 1px -1px 1px, white -1px 1px 1px;">Not Contacted</text></g><g class="sankey-node" transform="translate(0.000,251.408)" style="opacity: 1;"><rect class="node-rect" width="20" height="56.538461538461746" style="stroke-width: 0.5; stroke: rgb(0, 0, 0); stroke-opacity: 1; fill: rgb(239, 85, 59); fill-opacity: 0.8;"/><text class="node-label" data-notex="1" x="0" y="0" text-anchor="start" transform="translate(23.25,31.769230769230873)" style="cursor: default; font-family: 'Open Sans', verdana, arial, sans-serif; font-size: 10px; fill: rgb(42, 63, 95); fill-opacity: 1; white-space: pre; text-shadow: white 1px 1px 1px, white -1px -1px 1px, white 1px -1px 1px, white -1px 1px 1px;">They applied to me</text></g></g></g><defs id="topdefs-e7aa8a"><g class="clips"/></defs><g class="layer-above"><g class="imagelayer"/><g class="shapelayer"/></g><g class="infolayer"><g class="g-gtitle"><text class="gtitle" x="35" y="50" text-anchor="start" dy="0em" style="font-family: 'Open Sans', verdana, arial, sans-serif; font-size: 14px; fill: rgb(42, 63, 95); opacity: 1; white-space: pre;">Produced with plotly</text></g><g class="first-render"/></g></svg>